<?xml version="1.0" ?><svg data-name="Layer 2" height="100" id="Layer_2" viewBox="0 0 100 100" width="100" xmlns="http://www.w3.org/2000/svg"><title/><path d="M37,88a8,8,0,1,1,8-8A8,8,0,0,1,37,88Zm0-10a2,2,0,1,0,2,2A2,2,0,0,0,37,78Z"/><path d="M63,88a8,8,0,1,1,8-8A8,8,0,0,1,63,88Zm0-10a2,2,0,1,0,2,2A2,2,0,0,0,63,78Z"/><path d="M32,60H66a3.1,3.1,0,0,0,.54,0l.17,0,.35-.11.18-.07a2.43,2.43,0,0,0,.35-.2.33.33,0,0,0,.1-.06,1.8,1.8,0,0,0,.4-.33l.1-.1a1.76,1.76,0,0,0,.24-.3l.1-.15a3.14,3.14,0,0,0,.18-.31c0-.06.05-.11.07-.17l0-.07,13-35A3,3,0,1,0,76.19,21l-1.13,3H24.94l-1.13-3A3,3,0,0,0,21,19H14a3,3,0,0,0,0,6h4.91L29.8,54.31A8,8,0,0,0,32,70H73a3,3,0,0,0,0-6H32a2,2,0,0,1,0-4ZM44,39h3V36a3,3,0,0,1,6,0v3h3a3,3,0,0,1,0,6H53v3a3,3,0,0,1-6,0V45H44a3,3,0,0,1,0-6Z"/></svg>